<svg width="139" height="64" viewBox="0 0 139 64" fill="none" xmlns="http://www.w3.org/2000/svg">
<g clip-path="url(#clip0)">
<path d="M121.378 60.9615C121.262 60.913 121.155 60.8419 121.066 60.7522L109.581 49.238C109.214 48.8569 109.225 48.2502 109.607 47.883C109.978 47.5247 110.567 47.5255 110.938 47.8847L120.79 57.762L120.814 38.9928C120.816 26.8257 110.968 16.9531 98.8014 16.9239C98.2722 16.9232 97.8437 16.4936 97.8443 15.9643C97.845 15.4351 98.2746 15.0067 98.8039 15.0073C112.029 15.039 122.733 25.7701 122.731 38.9953L122.707 57.7644L132.582 47.9142C132.95 47.534 133.557 47.5243 133.937 47.8925C134.317 48.2607 134.327 48.8674 133.959 49.2476C133.951 49.2556 133.943 49.2634 133.935 49.271L122.421 60.7559C122.147 61.0301 121.735 61.112 121.376 60.9634L121.378 60.9615Z" fill="#2196F3"/>
<path d="M134.218 48.5928C134.22 48.0635 133.792 47.6332 133.263 47.6315C133.008 47.6308 132.763 47.7318 132.582 47.9122L121.747 58.7215L110.94 47.8847C110.56 47.5165 109.953 47.5263 109.585 47.9065C109.226 48.2774 109.225 48.8661 109.583 49.238L121.068 60.7522C121.442 61.1268 122.048 61.1275 122.423 60.7539L133.937 49.269C134.117 49.0897 134.218 48.8465 134.218 48.5928Z" fill="black"/>
<path d="M122.704 60.0777L122.731 38.9953C122.733 25.7701 112.029 15.039 98.8039 15.0073C98.2746 15.0067 97.845 15.4352 97.8443 15.9644C97.8437 16.4937 98.2722 16.9233 98.8014 16.924C110.968 16.9532 120.816 26.8257 120.814 38.9928L120.787 60.0753C120.787 60.6046 121.215 61.0342 121.744 61.0349C122.274 61.0355 122.703 60.6069 122.704 60.0777Z" fill="black"/>
<path d="M5.40625 27L5.40625 2.39063L7.26953 2.39063L7.26953 27L5.40625 27ZM8.85156 15.0117L18.2734 2.39063L20.418 2.39063L10.9961 15.0117L20.5586 27L18.4141 27L8.85156 15.0117ZM22.7383 27L22.7383 2.39063L24.6367 2.39063L24.6367 27L22.7383 27ZM27.625 6.1875C27.625 5.67188 27.8828 5.30859 28.3984 5.09766C28.5391 5.05078 28.6797 5.02734 28.8203 5.02734C29.3594 5.02734 29.7227 5.28516 29.9102 5.80078C29.957 5.94141 29.9805 6.07031 29.9805 6.1875C29.9805 6.72656 29.7227 7.08984 29.207 7.27734C29.0664 7.32422 28.9375 7.34766 28.8203 7.34766C28.2812 7.34766 27.9062 7.10156 27.6953 6.60938C27.6484 6.46875 27.625 6.32813 27.625 6.1875ZM27.9062 27L27.9062 8.75391L29.7344 8.75391L29.7344 27L27.9062 27ZM32.8984 27L32.8984 2.39063L34.7617 2.39063L34.7617 27L32.8984 27ZM35.5703 17.8242L44.5703 8.68359L47.0664 8.68359L38.0664 17.8242L47.0664 27L44.5703 27L35.5703 17.8242ZM57.5078 27L57.5078 13.5703C57.5078 12.0938 58.0117 10.8516 59.0195 9.84375C59.9805 8.95313 61.2109 8.50781 62.7109 8.50781L62.7109 10.3008C61.2812 10.3008 60.2734 10.9219 59.6875 12.1641C59.4531 12.6797 59.3359 13.2305 59.3359 13.8164L59.3359 27L57.5078 27ZM64.2578 10.3008L64.2578 8.50781C66.0156 8.50781 67.3516 9.10547 68.2656 10.3008C68.3828 10.4648 68.5 10.6289 68.6172 10.793C69.3906 9.62109 70.3516 8.90625 71.5 8.64844C71.9453 8.55469 72.4258 8.50781 72.9414 8.50781L72.9414 10.3008C71.5352 10.3008 70.5273 10.9102 69.918 12.1289C69.6602 12.668 69.5312 13.2305 69.5312 13.8164L69.5312 27L67.7031 27L67.7031 13.8164C67.7031 12.4102 67.1523 11.3906 66.0508 10.7578C65.5117 10.4531 64.9141 10.3008 64.2578 10.3008ZM74.4883 10.3008L74.4883 8.50781C76.668 8.50781 78.2266 9.45703 79.1641 11.3555C79.5391 12.1055 79.7266 12.8438 79.7266 13.5703L79.7266 27L77.8984 27L77.8984 13.8164C77.8984 12.3633 77.3242 11.332 76.1758 10.7227C75.6602 10.4414 75.0977 10.3008 74.4883 10.3008ZM82.5742 6.1875C82.5742 5.67188 82.832 5.30859 83.3477 5.09766C83.4883 5.05078 83.6289 5.02734 83.7695 5.02734C84.3086 5.02734 84.6719 5.28516 84.8594 5.80078C84.9062 5.94141 84.9297 6.07031 84.9297 6.1875C84.9297 6.72656 84.6719 7.08984 84.1562 7.27734C84.0156 7.32422 83.8867 7.34766 83.7695 7.34766C83.2305 7.34766 82.8555 7.10156 82.6445 6.60938C82.5977 6.46875 82.5742 6.32813 82.5742 6.1875ZM82.8555 27L82.8555 8.75391L84.6836 8.75391L84.6836 27L82.8555 27ZM89.2891 8.75391L91.1172 8.75391L91.1172 28.2656C91.1172 29.3672 90.6719 30.457 89.7812 31.5352C88.7031 32.7773 87.3672 33.4102 85.7734 33.4336L84.9648 33.4336L85.3867 31.7109L85.8437 31.7109C86.9922 31.6406 87.9297 31.0781 88.6562 30.0234C89.0781 29.4375 89.2891 28.8516 89.2891 28.2656L89.2891 8.75391ZM89.0781 6.1875C89.0781 5.625 89.3477 5.26172 89.8867 5.09766C90.0273 5.05078 90.1562 5.02734 90.2734 5.02734C90.8125 5.02734 91.1758 5.28516 91.3633 5.80078C91.4102 5.94141 91.4336 6.07031 91.4336 6.1875C91.4336 6.72656 91.1758 7.08984 90.6602 7.27734C90.5195 7.32422 90.3906 7.34766 90.2734 7.34766C89.7109 7.34766 89.3359 7.08984 89.1484 6.57422C89.1016 6.43359 89.0781 6.30469 89.0781 6.1875Z" fill="black"/>
</g>
<defs>
<clipPath id="clip0">
<rect width="63.8254" height="137.081" fill="white" transform="matrix(-0.00127429 0.999999 0.999999 0.00127429 1 0)"/>
</clipPath>
</defs>
</svg>
